<?xml version="1.0" encoding="utf-8"?>
<!-- Generator: Adobe Illustrator 22.0.1, SVG Export Plug-In . SVG Version: 6.00 Build 0)  -->
<svg version="1.1" id="Capa_1" xmlns:svgjs="http://svgjs.com/svgjs"
	 xmlns="http://www.w3.org/2000/svg" xmlns:xlink="http://www.w3.org/1999/xlink" x="0px" y="0px" viewBox="0 0 512 512"
	 style="enable-background:new 0 0 512 512;" xml:space="preserve">
<style type="text/css">
	.st0{fill:#59A8EF;}
	.st1{fill:#FFFFFF;}
</style>
<circle class="st0" cx="257" cy="256" r="249.3"/>
<g>
	<g>
		<g>
			<path class="st1" d="M347.1,269.3l-15.8-35.1c0,0,0,0,0,0l-10.8-23.9c0,0,0,0,0,0l-47.5-105.4c4.4-0.1,8.7-1.8,12-5.1
				c4-4,5.7-9.5,4.9-14.9c4.4-3.2,7.1-8.4,7.1-14c0-5.6-2.7-10.8-7.1-14c0.7-4.3-0.3-8.8-2.8-12.5c-1.2-1.7-3.5-2.1-5.2-1
				c-1.7,1.2-2.1,3.5-1,5.2c1.8,2.6,2.2,5.9,1.2,8.8c-0.6,1.8,0.2,3.7,1.9,4.6c3.4,1.7,5.5,5.1,5.5,8.9c0,3.8-2.1,7.2-5.5,8.9
				c-1.7,0.8-2.5,2.8-1.9,4.6c1.2,3.6,0.3,7.5-2.4,10.2c-2.7,2.7-6.6,3.6-10.2,2.4c-1.8-0.6-3.7,0.2-4.6,1.9c-0.2,0.4-0.4,0.7-0.6,1
				c0,0-0.1,0.1-0.1,0.1c-1.8,2.7-4.9,4.4-8.2,4.4s-6.4-1.7-8.2-4.4c0,0-0.1-0.1-0.1-0.1c-0.2-0.3-0.4-0.7-0.6-1
				c-0.8-1.7-2.8-2.5-4.6-1.9c-3.6,1.2-7.5,0.3-10.2-2.4c-2.7-2.7-3.6-6.6-2.4-10.2c0.6-1.8-0.2-3.7-1.9-4.6
				c-3.4-1.7-5.5-5.1-5.5-8.9c0-3.8,2.1-7.2,5.5-8.9c1.7-0.8,2.5-2.8,1.9-4.6c-1.2-3.6-0.3-7.5,2.4-10.2c2.7-2.7,6.6-3.6,10.2-2.4
				c1.8,0.6,3.7-0.2,4.6-1.9c1.7-3.4,5.1-5.5,8.9-5.5s7.2,2.1,8.9,5.5c0.8,1.7,2.8,2.5,4.6,1.9c1.5-0.5,3.2-0.7,4.8-0.4
				c2,0.3,4-1.1,4.3-3.1s-1.1-4-3.1-4.3c-1.8-0.3-3.6-0.3-5.4,0c-3.2-4.4-8.4-7.1-14-7.1c-5.6,0-10.8,2.7-14,7.1
				c-5.4-0.8-10.9,0.9-14.9,4.9c-4,4-5.7,9.5-4.9,14.9c-4.4,3.2-7.1,8.4-7.1,14c0,5.6,2.7,10.8,7.1,14c-0.8,5.4,0.9,11,4.9,14.9
				c3.3,3.3,7.6,5,12,5.1l-60.9,135.1c0,0,0,0,0,0l-13.2,29.4c-1.6,3.6-1.3,7.8,0.8,11.2c2.2,3.4,5.8,5.4,9.8,5.4h11.6
				c2.1,0,3.7-1.7,3.7-3.8c0-2.1-1.7-3.8-3.7-3.8h-11.6c-1.5,0-2.7-0.7-3.5-1.9c-0.8-1.2-0.9-2.7-0.3-4l3.6-7.9H229c0,0,0,0,0,0
				c0,0,0,0,0,0h58.6c0,0,0,0,0,0c0,0,0,0,0,0h49.1l3.6,7.9c0.6,1.3,0.5,2.8-0.3,4c-0.8,1.2-2.1,1.9-3.5,1.9H202.3
				c-2.1,0-3.7,1.7-3.7,3.8c0,2.1,1.7,3.8,3.7,3.8h134.2c4,0,7.7-2,9.8-5.4C348.4,277.1,348.7,272.9,347.1,269.3z M245.7,108.4
				c2.9,2.2,6.5,3.4,10.3,3.4c3.8,0,7.4-1.2,10.3-3.4l1.4,3.1c-0.6,0.3-1.1,0.6-1.7,0.9c-9.1,4.8-18.6,9.4-28.4,13.8L245.7,108.4z
				 M233,136.5c12.5-5.4,24.8-11.3,36.5-17.4c0.4-0.2,0.9-0.5,1.3-0.7l7.5,16.6c-0.1,0.1-0.2,0.1-0.3,0.2
				c-18.2,9.6-37.3,18.3-55.8,25.6L233,136.5z M217.8,170.4c20.9-7.8,42.9-17.7,63.6-28.6l9.1,20.1c-7.6,4.6-15.8,9.3-24.4,13.8
				c-20.4,10.7-42.6,20.6-63.4,28.2L217.8,170.4z M198.4,213.4c23-8,48.2-19,71.1-31c8.4-4.4,16.5-9,24-13.5l7.5,16.6
				c-7.3,4.4-15.1,8.7-23.1,13c-30.1,15.8-62.3,29.2-89.6,37.3L198.4,213.4z M228.2,257h-49.5l5.6-12.3c29-8,64.3-22.4,97.2-39.6
				c7.9-4.2,15.5-8.4,22.7-12.7l8.3,18.3c-12.9,9.4-28.5,19-46.4,28.4C253.9,245.3,241.2,251.4,228.2,257z M286.6,257h-40.1
				c7.8-3.6,15.5-7.4,22.9-11.4c17.6-9.3,33.1-18.7,46-28l7.6,16.8C312.4,242,300.1,249.5,286.6,257z M301.8,257
				c8.8-5.2,17-10.4,24.5-15.6l7,15.6H301.8z"/>
		</g>
	</g>
</g>
<g>
	<g>
		<g>
			<path class="st1" d="M450.4,352.4l-17.1-1.3c-3.1-3.9-6.5-10.4-8.7-21.3l-0.9-4.7l-4.8-0.6c-0.5-0.1-52.6-6.5-93.7-15.1
				c-34.5-7.2-54.6,6-61.7,12c-2.2,1.9-4.1,3.9-5.8,5.9c-1.6-2-3.6-4-5.8-5.9c-7.1-6-27.2-19.2-61.7-12
				c-41.1,8.6-93.2,15.1-93.7,15.1l-4.8,0.6l-0.9,4.7c-2.1,10.8-5.5,17.3-8.6,21.2l-18.8,1.4c-6.4,0.5-11.2,6-10.7,12.3
				c0.5,6.3,6,11.1,12.4,10.6l142.2-10.6c6.5,11.4,21.1,24.2,48.6,24.2c0.3,0,0.5-0.1,0.8-0.1c0.3,0,0.5,0.1,0.8,0.1
				c27.5,0,42.1-12.9,48.6-24.2l142.2,10.6c6.4,0.5,11.9-4.3,12.4-10.6C461.6,358.4,456.8,352.8,450.4,352.4z M299.8,341.2
				c-6-0.4-11.1,3.6-12.2,9.3c0,0.1-3.3,15.5-29.7,15.5c-0.3,0-0.5,0.1-0.8,0.1c-0.3,0-0.5-0.1-0.8-0.1c-25.2,0-29.4-14.1-29.7-15.5
				c-1.1-5.7-6.4-9.7-12.2-9.3l-115.7,8.6c1.7-3.6,3.2-7.8,4.5-12.8c13.8-1.8,55.7-7.5,90.2-14.7c19.9-4.2,38.7-0.8,50.3,9.1
				c6,5.1,7.9,10.1,7.8,12.9c0,0,0,0.1,0,0.1c0,0.2,0,0.4,0,0.6c0,0.3,0.2,0.6,0.2,0.8c0.1,0.5,0.2,0.9,0.4,1.4
				c0.2,0.4,0.4,0.7,0.6,1c0.2,0.4,0.5,0.8,0.8,1.1c0.3,0.3,0.6,0.5,1,0.7c0.4,0.2,0.7,0.5,1.1,0.6c0.4,0.2,0.9,0.3,1.3,0.3
				c0.3,0.1,0.6,0.2,0.9,0.2c0.1,0,0.2-0.1,0.4-0.1c0.1,0,0.2,0.1,0.4,0.1c0.4,0,0.6-0.2,1-0.3c0.4-0.1,0.8-0.1,1.1-0.3
				c0.5-0.2,0.9-0.5,1.3-0.8c0.3-0.2,0.6-0.4,0.8-0.6c0.4-0.3,0.6-0.7,0.9-1.2c0.2-0.3,0.4-0.6,0.6-0.9c0.2-0.4,0.3-0.9,0.4-1.4
				c0.1-0.3,0.2-0.5,0.2-0.8c0-0.2,0-0.4,0-0.6c0,0,0-0.1,0-0.1c-0.2-2.8,1.8-7.8,7.8-12.9c11.6-9.9,30.4-13.3,50.3-9.1
				c34.5,7.2,76.4,12.9,90.2,14.7c1.3,5.1,2.8,9.3,4.5,12.9L299.8,341.2z"/>
		</g>
	</g>
</g>
</svg>
